<svg width="80" height="29" viewBox="0 0 80 29" fill="none" xmlns="http://www.w3.org/2000/svg">
<path d="M4.78441 19.058V22.712C4.78441 22.796 4.82641 22.838 4.91041 22.838H5.33341V23H4.89241C4.53241 23 4.28041 23.018 4.13641 23.054V21.839C3.93241 22.685 3.48241 23.108 2.78641 23.108C2.47441 23.108 2.21041 22.997 1.99441 22.775C1.77841 22.547 1.67041 22.202 1.67041 21.74V19.4C1.67041 19.316 1.62841 19.274 1.54441 19.274H1.12141V19.112H1.56241C1.92241 19.112 2.17441 19.094 2.31841 19.058V21.857C2.31841 22.163 2.38441 22.391 2.51641 22.541C2.65441 22.685 2.83441 22.757 3.05641 22.757C3.37441 22.757 3.63241 22.565 3.83041 22.181C4.03441 21.791 4.13641 21.233 4.13641 20.507V19.4C4.13641 19.316 4.09441 19.274 4.01041 19.274H3.58741V19.112H4.02841C4.38841 19.112 4.64041 19.094 4.78441 19.058ZM6.41861 22.712V17.456C6.41861 17.372 6.37661 17.33 6.29261 17.33H5.86961V17.168H6.31061C6.67061 17.168 6.92261 17.15 7.06661 17.114V22.712C7.06661 22.796 7.10861 22.838 7.19261 22.838H7.61561V23H5.86961V22.838H6.29261C6.37661 22.838 6.41861 22.796 6.41861 22.712ZM9.12677 18.158H9.26177V19.112H10.1618V19.274H9.26177V22.325C9.26177 22.649 9.35177 22.811 9.53177 22.811C9.61577 22.811 9.68777 22.772 9.74777 22.694C9.81377 22.616 9.84677 22.526 9.84677 22.424C9.84677 22.322 9.83777 22.226 9.81977 22.136L9.99077 22.109C10.0148 22.199 10.0268 22.298 10.0268 22.406C10.0268 22.622 9.96077 22.793 9.82877 22.919C9.70277 23.045 9.53477 23.108 9.32477 23.108C9.11477 23.108 8.94377 23.024 8.81177 22.856C8.67977 22.682 8.61377 22.424 8.61377 22.082V19.4C8.61377 19.316 8.57177 19.274 8.48777 19.274H8.06477V19.112H8.50577C8.69777 19.112 8.90477 18.794 9.12677 18.158ZM11.2997 22.712V19.4C11.2997 19.316 11.2577 19.274 11.1737 19.274H10.7507V19.112H11.1917C11.5517 19.112 11.8037 19.094 11.9477 19.058V22.73C11.9477 22.802 11.9897 22.838 12.0737 22.838H12.4967V23H10.7507V22.838H11.1737C11.2577 22.838 11.2997 22.796 11.2997 22.712ZM11.3177 18.122C11.2397 18.038 11.2007 17.936 11.2007 17.816C11.2007 17.696 11.2397 17.597 11.3177 17.519C11.4017 17.435 11.5037 17.393 11.6237 17.393C11.7437 17.393 11.8427 17.435 11.9207 17.519C12.0047 17.597 12.0467 17.696 12.0467 17.816C12.0467 17.936 12.0047 18.038 11.9207 18.122C11.8427 18.2 11.7437 18.239 11.6237 18.239C11.5037 18.239 11.4017 18.2 11.3177 18.122ZM19.1167 20.372V22.73C19.1167 22.802 19.1587 22.838 19.2427 22.838H19.6657V23H18.0457V22.838H18.3427C18.4267 22.838 18.4687 22.802 18.4687 22.73V20.255C18.4687 19.949 18.4057 19.724 18.2797 19.58C18.1537 19.43 17.9827 19.355 17.7667 19.355C17.4667 19.355 17.2207 19.55 17.0287 19.94C16.8367 20.324 16.7407 20.879 16.7407 21.605V22.712C16.7407 22.796 16.7827 22.838 16.8667 22.838H17.2897V23H15.6697V22.838H15.9667C16.0507 22.838 16.0927 22.802 16.0927 22.73V20.255C16.0927 19.949 16.0297 19.724 15.9037 19.58C15.7777 19.43 15.6067 19.355 15.3907 19.355C15.0907 19.355 14.8447 19.55 14.6527 19.94C14.4607 20.324 14.3647 20.879 14.3647 21.605V22.712C14.3647 22.796 14.4067 22.838 14.4907 22.838H14.7877V23H13.1677V22.838H13.5907C13.6747 22.838 13.7167 22.802 13.7167 22.73V19.4C13.7167 19.316 13.6747 19.274 13.5907 19.274H13.1677V19.112H13.6087C13.9687 19.112 14.2207 19.094 14.3647 19.058V20.264C14.5627 19.424 14.9887 19.004 15.6427 19.004C15.9307 19.004 16.1797 19.109 16.3897 19.319C16.6057 19.529 16.7227 19.847 16.7407 20.273C16.9387 19.427 17.3647 19.004 18.0187 19.004C18.3187 19.004 18.5767 19.118 18.7927 19.346C19.0087 19.568 19.1167 19.91 19.1167 20.372ZM22.5525 20.903L22.5615 20.588V20.273C22.5615 19.571 22.3335 19.22 21.8775 19.22C21.6795 19.22 21.5235 19.289 21.4095 19.427C21.3015 19.559 21.2475 19.715 21.2475 19.895C21.2475 20.075 21.2715 20.231 21.3195 20.363C21.2175 20.453 21.0765 20.498 20.8965 20.498C20.7165 20.498 20.6265 20.351 20.6265 20.057C20.6265 19.763 20.7405 19.514 20.9685 19.31C21.2025 19.106 21.5325 19.004 21.9585 19.004C22.7925 19.004 23.2095 19.496 23.2095 20.48V22.325C23.2095 22.649 23.2995 22.811 23.4795 22.811C23.5635 22.811 23.6355 22.772 23.6955 22.694C23.7615 22.616 23.7945 22.526 23.7945 22.424C23.7945 22.322 23.7855 22.226 23.7675 22.136L23.9385 22.109C23.9625 22.199 23.9745 22.298 23.9745 22.406C23.9745 22.622 23.9085 22.793 23.7765 22.919C23.6505 23.045 23.4825 23.108 23.2725 23.108C23.0625 23.108 22.8915 23.024 22.7595 22.856C22.6275 22.682 22.5615 22.424 22.5615 22.082V21.92C22.4595 22.328 22.2975 22.628 22.0755 22.82C21.8535 23.012 21.5955 23.108 21.3015 23.108C21.0135 23.108 20.7795 23.018 20.5995 22.838C20.4255 22.652 20.3385 22.409 20.3385 22.109C20.3385 21.803 20.4795 21.533 20.7615 21.299C21.0435 21.059 21.4485 20.939 21.9765 20.939C22.0905 20.939 22.2825 20.954 22.5525 20.984V20.903ZM21.5085 22.766C21.7605 22.766 21.9855 22.625 22.1835 22.343C22.3875 22.055 22.5075 21.653 22.5435 21.137C22.4835 21.131 22.3995 21.128 22.2915 21.128C21.8115 21.128 21.4665 21.23 21.2565 21.434C21.0525 21.632 20.9505 21.863 20.9505 22.127C20.9505 22.301 21.0015 22.451 21.1035 22.577C21.2055 22.703 21.3405 22.766 21.5085 22.766ZM25.3514 18.158H25.4864V19.112H26.3864V19.274H25.4864V22.325C25.4864 22.649 25.5764 22.811 25.7564 22.811C25.8404 22.811 25.9124 22.772 25.9724 22.694C26.0384 22.616 26.0714 22.526 26.0714 22.424C26.0714 22.322 26.0624 22.226 26.0444 22.136L26.2154 22.109C26.2394 22.199 26.2514 22.298 26.2514 22.406C26.2514 22.622 26.1854 22.793 26.0534 22.919C25.9274 23.045 25.7594 23.108 25.5494 23.108C25.3394 23.108 25.1684 23.024 25.0364 22.856C24.9044 22.682 24.8384 22.424 24.8384 22.082V19.4C24.8384 19.316 24.7964 19.274 24.7124 19.274H24.2894V19.112H24.7304C24.9224 19.112 25.1294 18.794 25.3514 18.158ZM28.7483 19.004C29.1623 19.004 29.4893 19.142 29.7293 19.418C29.9693 19.694 30.0893 20.099 30.0893 20.633C30.0893 20.741 30.0833 20.861 30.0713 20.993H27.6143V21.056C27.6143 21.626 27.7163 22.076 27.9203 22.406C28.1303 22.73 28.3973 22.892 28.7213 22.892C29.0513 22.892 29.3213 22.808 29.5313 22.64C29.7413 22.472 29.8853 22.232 29.9633 21.92L30.1343 21.956C30.0623 22.322 29.8973 22.607 29.6393 22.811C29.3813 23.009 29.0843 23.108 28.7483 23.108C28.2263 23.108 27.7913 22.925 27.4433 22.559C27.1013 22.193 26.9303 21.695 26.9303 21.065C26.9303 20.429 27.1043 19.928 27.4523 19.562C27.8003 19.19 28.2323 19.004 28.7483 19.004ZM29.4683 20.327C29.4683 19.589 29.1923 19.22 28.6403 19.22C28.3643 19.22 28.1273 19.37 27.9293 19.67C27.7373 19.97 27.6353 20.351 27.6233 20.813H29.4323C29.4563 20.609 29.4683 20.447 29.4683 20.327ZM34.395 18.032V19.112H35.295V19.274H34.395V22.73C34.395 22.802 34.443 22.838 34.539 22.838H35.124V23H33.198V22.838H33.621C33.705 22.838 33.747 22.796 33.747 22.712V19.4C33.747 19.316 33.705 19.274 33.621 19.274H33.198V19.112H33.756C33.792 18.416 33.921 17.9 34.143 17.564C34.371 17.228 34.641 17.06 34.953 17.06C35.271 17.06 35.502 17.138 35.646 17.294C35.79 17.444 35.862 17.606 35.862 17.78C35.862 18.14 35.757 18.32 35.547 18.32C35.373 18.32 35.232 18.275 35.124 18.185C35.214 18.005 35.259 17.846 35.259 17.708C35.259 17.414 35.136 17.267 34.89 17.267C34.56 17.267 34.395 17.522 34.395 18.032ZM38.0564 20.903L38.0654 20.588V20.273C38.0654 19.571 37.8374 19.22 37.3814 19.22C37.1834 19.22 37.0274 19.289 36.9134 19.427C36.8054 19.559 36.7514 19.715 36.7514 19.895C36.7514 20.075 36.7754 20.231 36.8234 20.363C36.7214 20.453 36.5804 20.498 36.4004 20.498C36.2204 20.498 36.1304 20.351 36.1304 20.057C36.1304 19.763 36.2444 19.514 36.4724 19.31C36.7064 19.106 37.0364 19.004 37.4624 19.004C38.2964 19.004 38.7134 19.496 38.7134 20.48V22.325C38.7134 22.649 38.8034 22.811 38.9834 22.811C39.0674 22.811 39.1394 22.772 39.1994 22.694C39.2654 22.616 39.2984 22.526 39.2984 22.424C39.2984 22.322 39.2894 22.226 39.2714 22.136L39.4424 22.109C39.4664 22.199 39.4784 22.298 39.4784 22.406C39.4784 22.622 39.4124 22.793 39.2804 22.919C39.1544 23.045 38.9864 23.108 38.7764 23.108C38.5664 23.108 38.3954 23.024 38.2634 22.856C38.1314 22.682 38.0654 22.424 38.0654 22.082V21.92C37.9634 22.328 37.8014 22.628 37.5794 22.82C37.3574 23.012 37.0994 23.108 36.8054 23.108C36.5174 23.108 36.2834 23.018 36.1034 22.838C35.9294 22.652 35.8424 22.409 35.8424 22.109C35.8424 21.803 35.9834 21.533 36.2654 21.299C36.5474 21.059 36.9524 20.939 37.4804 20.939C37.5944 20.939 37.7864 20.954 38.0564 20.984V20.903ZM37.0124 22.766C37.2644 22.766 37.4894 22.625 37.6874 22.343C37.8914 22.055 38.0114 21.653 38.0474 21.137C37.9874 21.131 37.9034 21.128 37.7954 21.128C37.3154 21.128 36.9704 21.23 36.7604 21.434C36.5564 21.632 36.4544 21.863 36.4544 22.127C36.4544 22.301 36.5054 22.451 36.6074 22.577C36.7094 22.703 36.8444 22.766 37.0124 22.766ZM41.1433 20.561L42.0793 20.912C42.3013 20.996 42.4693 21.125 42.5833 21.299C42.7033 21.467 42.7633 21.656 42.7633 21.866C42.7633 22.19 42.6343 22.478 42.3763 22.73C42.1183 22.982 41.7703 23.108 41.3323 23.108C40.9003 23.108 40.4923 23.027 40.1083 22.865C40.1443 22.721 40.1623 22.469 40.1623 22.109V21.749H40.3243L40.3873 22.217C40.4413 22.667 40.7563 22.892 41.3323 22.892C41.5903 22.892 41.8033 22.814 41.9713 22.658C42.1453 22.496 42.2323 22.313 42.2323 22.109C42.2323 21.827 42.0613 21.623 41.7193 21.497L40.7833 21.146C40.5733 21.068 40.4143 20.945 40.3063 20.777C40.1983 20.609 40.1443 20.42 40.1443 20.21C40.1443 19.892 40.2583 19.613 40.4863 19.373C40.7143 19.127 40.9993 19.004 41.3413 19.004C41.6893 19.004 42.0793 19.085 42.5113 19.247C42.4753 19.391 42.4573 19.643 42.4573 20.003V20.363H42.2953L42.2323 19.895C42.1843 19.463 41.9113 19.247 41.4133 19.247C41.1913 19.247 41.0083 19.316 40.8643 19.454C40.7203 19.592 40.6483 19.754 40.6483 19.94C40.6483 20.228 40.8133 20.435 41.1433 20.561ZM47.0971 20.372V22.73C47.0971 22.802 47.1391 22.838 47.2231 22.838H47.6461V23H46.0261V22.838H46.3231C46.4071 22.838 46.4491 22.802 46.4491 22.73V20.255C46.4491 19.949 46.3801 19.724 46.2421 19.58C46.1101 19.43 45.9331 19.355 45.7111 19.355C45.3991 19.355 45.1411 19.541 44.9371 19.913C44.7331 20.279 44.6311 20.807 44.6311 21.497V22.712C44.6311 22.796 44.6731 22.838 44.7571 22.838H45.0541V23H43.4341V22.838H43.8571C43.9411 22.838 43.9831 22.802 43.9831 22.73V17.456C43.9831 17.372 43.9411 17.33 43.8571 17.33H43.4341V17.168H43.8751C44.2351 17.168 44.4871 17.15 44.6311 17.114V20.282C44.8351 19.43 45.2851 19.004 45.9811 19.004C46.2931 19.004 46.5571 19.118 46.7731 19.346C46.9891 19.568 47.0971 19.91 47.0971 20.372ZM48.8729 22.712V19.4C48.8729 19.316 48.8309 19.274 48.7469 19.274H48.3239V19.112H48.7649C49.1249 19.112 49.3769 19.094 49.5209 19.058V22.73C49.5209 22.802 49.5629 22.838 49.6469 22.838H50.0699V23H48.3239V22.838H48.7469C48.8309 22.838 48.8729 22.796 48.8729 22.712ZM48.8909 18.122C48.8129 18.038 48.7739 17.936 48.7739 17.816C48.7739 17.696 48.8129 17.597 48.8909 17.519C48.9749 17.435 49.0769 17.393 49.1969 17.393C49.3169 17.393 49.4159 17.435 49.4939 17.519C49.5779 17.597 49.6199 17.696 49.6199 17.816C49.6199 17.936 49.5779 18.038 49.4939 18.122C49.4159 18.2 49.3169 18.239 49.1969 18.239C49.0769 18.239 48.9749 18.2 48.8909 18.122ZM51.1999 22.559C50.8639 22.193 50.6959 21.692 50.6959 21.056C50.6959 20.42 50.8639 19.919 51.1999 19.553C51.5359 19.187 51.9739 19.004 52.5139 19.004C53.0539 19.004 53.4919 19.187 53.8279 19.553C54.1699 19.919 54.3409 20.42 54.3409 21.056C54.3409 21.692 54.1699 22.193 53.8279 22.559C53.4919 22.925 53.0539 23.108 52.5139 23.108C51.9739 23.108 51.5359 22.925 51.1999 22.559ZM51.7039 19.706C51.4879 20.036 51.3799 20.486 51.3799 21.056C51.3799 21.626 51.4879 22.079 51.7039 22.415C51.9199 22.745 52.1899 22.91 52.5139 22.91C52.8379 22.91 53.1079 22.745 53.3239 22.415C53.5459 22.079 53.6569 21.626 53.6569 21.056C53.6569 20.486 53.5459 20.036 53.3239 19.706C53.1079 19.37 52.8379 19.202 52.5139 19.202C52.1899 19.202 51.9199 19.37 51.7039 19.706ZM58.7721 20.372V22.73C58.7721 22.802 58.8141 22.838 58.8981 22.838H59.3211V23H57.7011V22.838H57.9981C58.0821 22.838 58.1241 22.802 58.1241 22.73V20.255C58.1241 19.949 58.0551 19.724 57.9171 19.58C57.7851 19.43 57.6081 19.355 57.3861 19.355C57.0741 19.355 56.8161 19.541 56.6121 19.913C56.4081 20.279 56.3061 20.807 56.3061 21.497V22.712C56.3061 22.796 56.3481 22.838 56.4321 22.838H56.7291V23H55.1091V22.838H55.5321C55.6161 22.838 55.6581 22.802 55.6581 22.73V19.4C55.6581 19.316 55.6161 19.274 55.5321 19.274H55.1091V19.112H55.5501C55.9101 19.112 56.1621 19.094 56.3061 19.058V20.282C56.5101 19.43 56.9601 19.004 57.6561 19.004C57.9681 19.004 58.2321 19.118 58.4481 19.346C58.6641 19.568 58.7721 19.91 58.7721 20.372ZM63.4148 20.561L64.3508 20.912C64.5728 20.996 64.7408 21.125 64.8548 21.299C64.9748 21.467 65.0348 21.656 65.0348 21.866C65.0348 22.19 64.9058 22.478 64.6478 22.73C64.3898 22.982 64.0418 23.108 63.6038 23.108C63.1718 23.108 62.7638 23.027 62.3798 22.865C62.4158 22.721 62.4338 22.469 62.4338 22.109V21.749H62.5958L62.6588 22.217C62.7128 22.667 63.0278 22.892 63.6038 22.892C63.8618 22.892 64.0748 22.814 64.2428 22.658C64.4168 22.496 64.5038 22.313 64.5038 22.109C64.5038 21.827 64.3328 21.623 63.9908 21.497L63.0548 21.146C62.8448 21.068 62.6858 20.945 62.5778 20.777C62.4698 20.609 62.4158 20.42 62.4158 20.21C62.4158 19.892 62.5298 19.613 62.7578 19.373C62.9858 19.127 63.2708 19.004 63.6128 19.004C63.9608 19.004 64.3508 19.085 64.7828 19.247C64.7468 19.391 64.7288 19.643 64.7288 20.003V20.363H64.5668L64.5038 19.895C64.4558 19.463 64.1828 19.247 63.6848 19.247C63.4628 19.247 63.2798 19.316 63.1358 19.454C62.9918 19.592 62.9198 19.754 62.9198 19.94C62.9198 20.228 63.0848 20.435 63.4148 20.561ZM69.3685 20.372V22.73C69.3685 22.802 69.4105 22.838 69.4945 22.838H69.9175V23H68.2975V22.838H68.5945C68.6785 22.838 68.7205 22.802 68.7205 22.73V20.255C68.7205 19.949 68.6515 19.724 68.5135 19.58C68.3815 19.43 68.2045 19.355 67.9825 19.355C67.6705 19.355 67.4125 19.541 67.2085 19.913C67.0045 20.279 66.9025 20.807 66.9025 21.497V22.712C66.9025 22.796 66.9445 22.838 67.0285 22.838H67.3255V23H65.7055V22.838H66.1285C66.2125 22.838 66.2545 22.802 66.2545 22.73V17.456C66.2545 17.372 66.2125 17.33 66.1285 17.33H65.7055V17.168H66.1465C66.5065 17.168 66.7585 17.15 66.9025 17.114V20.282C67.1065 19.43 67.5565 19.004 68.2525 19.004C68.5645 19.004 68.8285 19.118 69.0445 19.346C69.2605 19.568 69.3685 19.91 69.3685 20.372ZM71.0544 22.559C70.7184 22.193 70.5504 21.692 70.5504 21.056C70.5504 20.42 70.7184 19.919 71.0544 19.553C71.3904 19.187 71.8284 19.004 72.3684 19.004C72.9084 19.004 73.3464 19.187 73.6824 19.553C74.0244 19.919 74.1954 20.42 74.1954 21.056C74.1954 21.692 74.0244 22.193 73.6824 22.559C73.3464 22.925 72.9084 23.108 72.3684 23.108C71.8284 23.108 71.3904 22.925 71.0544 22.559ZM71.5584 19.706C71.3424 20.036 71.2344 20.486 71.2344 21.056C71.2344 21.626 71.3424 22.079 71.5584 22.415C71.7744 22.745 72.0444 22.91 72.3684 22.91C72.6924 22.91 72.9624 22.745 73.1784 22.415C73.4004 22.079 73.5114 21.626 73.5114 21.056C73.5114 20.486 73.4004 20.036 73.1784 19.706C72.9624 19.37 72.6924 19.202 72.3684 19.202C72.0444 19.202 71.7744 19.37 71.5584 19.706ZM75.3776 24.656V19.4C75.3776 19.316 75.3356 19.274 75.2516 19.274H74.8286V19.112H75.2696C75.6296 19.112 75.8816 19.094 76.0256 19.058V20.318C76.1276 19.886 76.2896 19.559 76.5116 19.337C76.7396 19.115 76.9916 19.004 77.2676 19.004C77.6456 19.004 77.9786 19.193 78.2666 19.571C78.5546 19.949 78.6986 20.45 78.6986 21.074C78.6986 21.698 78.5336 22.193 78.2036 22.559C77.8796 22.925 77.4536 23.108 76.9256 23.108C76.5956 23.108 76.2956 23.027 76.0256 22.865V24.656C76.0256 24.74 76.0676 24.782 76.1516 24.782H76.7546V24.944H74.8286V24.782H75.2516C75.3356 24.782 75.3776 24.74 75.3776 24.656ZM78.0146 21.092C78.0146 20.534 77.9276 20.105 77.7536 19.805C77.5796 19.499 77.3576 19.346 77.0876 19.346C76.8236 19.346 76.5806 19.523 76.3586 19.877C76.1366 20.231 76.0256 20.741 76.0256 21.407V22.622C76.2896 22.796 76.5776 22.883 76.8896 22.883C77.2076 22.883 77.4746 22.724 77.6906 22.406C77.9066 22.088 78.0146 21.65 78.0146 21.092Z" fill="black"/>
<path d="M10.986 12L10.972 11.804C10.9627 11.608 10.888 11.51 10.748 11.51C10.6733 11.51 10.538 11.5613 10.342 11.664C9.73533 12 9.124 12.168 8.508 12.168C7.332 12.168 6.366 11.762 5.61 10.95C4.86333 10.138 4.49 9.02267 4.49 7.604C4.49 6.176 4.85867 5.056 5.596 4.244C6.34267 3.42267 7.31333 3.012 8.508 3.012C9.11467 3.012 9.72133 3.166 10.328 3.474C10.524 3.57667 10.664 3.628 10.748 3.628C10.888 3.628 10.9627 3.53 10.972 3.334L10.986 3.096H11.252V5.518H11C10.916 4.79933 10.6453 4.272 10.188 3.936C9.74 3.59067 9.18 3.418 8.508 3.418C7.65867 3.418 6.97267 3.79133 6.45 4.538C5.93667 5.28467 5.68 6.30667 5.68 7.604C5.68 8.90133 5.94133 9.91867 6.464 10.656C6.98667 11.3933 7.668 11.762 8.508 11.762C9.18 11.762 9.74 11.594 10.188 11.258C10.6453 10.9127 10.916 10.3807 11 9.662H11.252V12H10.986ZM13.2327 11.314C12.71 10.7447 12.4487 9.96533 12.4487 8.976C12.4487 7.98667 12.71 7.20733 13.2327 6.638C13.7553 6.06867 14.4367 5.784 15.2767 5.784C16.1167 5.784 16.798 6.06867 17.3207 6.638C17.8527 7.20733 18.1187 7.98667 18.1187 8.976C18.1187 9.96533 17.8527 10.7447 17.3207 11.314C16.798 11.8833 16.1167 12.168 15.2767 12.168C14.4367 12.168 13.7553 11.8833 13.2327 11.314ZM14.0167 6.876C13.6807 7.38933 13.5127 8.08933 13.5127 8.976C13.5127 9.86267 13.6807 10.5673 14.0167 11.09C14.3527 11.6033 14.7727 11.86 15.2767 11.86C15.7807 11.86 16.2007 11.6033 16.5367 11.09C16.882 10.5673 17.0547 9.86267 17.0547 8.976C17.0547 8.08933 16.882 7.38933 16.5367 6.876C16.2007 6.35333 15.7807 6.092 15.2767 6.092C14.7727 6.092 14.3527 6.35333 14.0167 6.876ZM20.2376 11.748H22.9956C23.1356 11.748 23.2196 11.6827 23.2476 11.552L23.4576 10.208H23.7096V10.908C23.7096 11.468 23.7376 11.86 23.7936 12.084C23.5696 12.028 23.2336 12 22.7856 12H19.1036V11.748L22.6456 6.204H20.1676C20.0276 6.204 19.9436 6.26933 19.9156 6.4L19.7056 7.744H19.4536V7.044C19.4536 6.484 19.4256 6.092 19.3696 5.868C19.5936 5.924 19.9296 5.952 20.3776 5.952H23.7796V6.204L20.2376 11.748ZM28.4174 5.952H30.1954V6.204H29.6774C29.5934 6.204 29.5281 6.26933 29.4814 6.4L27.0594 12.882C27.0314 12.966 26.9848 13.092 26.9194 13.26L26.7654 13.638C26.7374 13.722 26.6954 13.834 26.6394 13.974C26.5834 14.1233 26.5368 14.2353 26.4994 14.31C26.4621 14.394 26.4154 14.492 26.3594 14.604C26.2941 14.744 26.2008 14.8747 26.0794 14.996C25.9581 15.1267 25.8321 15.192 25.7014 15.192C25.5708 15.192 25.4308 15.108 25.2814 14.94C25.1414 14.7813 25.0574 14.6087 25.0294 14.422C25.8788 14.058 26.4574 13.4513 26.7654 12.602L27.0034 11.958L24.9314 6.4C24.8848 6.26933 24.8194 6.204 24.7354 6.204H24.2174V5.952H26.5974V6.204H25.8974L27.5074 10.628L29.1314 6.204H28.4174V5.952Z" fill="black"/>
<path d="M36.986 12L36.972 11.804C36.9627 11.608 36.888 11.51 36.748 11.51C36.6733 11.51 36.538 11.5613 36.342 11.664C35.7353 12 35.124 12.168 34.508 12.168C33.332 12.168 32.366 11.762 31.61 10.95C30.8633 10.138 30.49 9.02267 30.49 7.604C30.49 6.176 30.8587 5.056 31.596 4.244C32.3427 3.42267 33.3133 3.012 34.508 3.012C35.1147 3.012 35.7213 3.166 36.328 3.474C36.524 3.57667 36.664 3.628 36.748 3.628C36.888 3.628 36.9627 3.53 36.972 3.334L36.986 3.096H37.252V5.518H37C36.916 4.79933 36.6453 4.272 36.188 3.936C35.74 3.59067 35.18 3.418 34.508 3.418C33.6587 3.418 32.9727 3.79133 32.45 4.538C31.9367 5.28467 31.68 6.30667 31.68 7.604C31.68 8.90133 31.9413 9.91867 32.464 10.656C32.9867 11.3933 33.668 11.762 34.508 11.762C35.18 11.762 35.74 11.594 36.188 11.258C36.6453 10.9127 36.916 10.3807 37 9.662H37.252V12H36.986ZM39.1627 11.552V3.376C39.1627 3.24533 39.0973 3.18 38.9667 3.18H38.3087V2.928H38.9947C39.5547 2.928 39.9467 2.9 40.1707 2.844V11.552C40.1707 11.6827 40.236 11.748 40.3667 11.748H41.0247V12H38.3087V11.748H38.9667C39.0973 11.748 39.1627 11.6827 39.1627 11.552ZM42.7874 11.314C42.2647 10.7447 42.0034 9.96533 42.0034 8.976C42.0034 7.98667 42.2647 7.20733 42.7874 6.638C43.31 6.06867 43.9914 5.784 44.8314 5.784C45.6714 5.784 46.3527 6.06867 46.8754 6.638C47.4074 7.20733 47.6734 7.98667 47.6734 8.976C47.6734 9.96533 47.4074 10.7447 46.8754 11.314C46.3527 11.8833 45.6714 12.168 44.8314 12.168C43.9914 12.168 43.31 11.8833 42.7874 11.314ZM43.5714 6.876C43.2354 7.38933 43.0674 8.08933 43.0674 8.976C43.0674 9.86267 43.2354 10.5673 43.5714 11.09C43.9074 11.6033 44.3274 11.86 44.8314 11.86C45.3354 11.86 45.7554 11.6033 46.0914 11.09C46.4367 10.5673 46.6094 9.86267 46.6094 8.976C46.6094 8.08933 46.4367 7.38933 46.0914 6.876C45.7554 6.35333 45.3354 6.092 44.8314 6.092C44.3274 6.092 43.9074 6.35333 43.5714 6.876ZM50.1703 4.468H50.3803V5.952H51.7803V6.204H50.3803V10.95C50.3803 11.454 50.5203 11.706 50.8003 11.706C50.9309 11.706 51.0429 11.6453 51.1363 11.524C51.2389 11.4027 51.2903 11.2627 51.2903 11.104C51.2903 10.9453 51.2763 10.796 51.2483 10.656L51.5143 10.614C51.5516 10.754 51.5703 10.908 51.5703 11.076C51.5703 11.412 51.4676 11.678 51.2623 11.874C51.0663 12.07 50.8049 12.168 50.4783 12.168C50.1516 12.168 49.8856 12.0373 49.6803 11.776C49.4749 11.5053 49.3723 11.104 49.3723 10.572V6.4C49.3723 6.26933 49.3069 6.204 49.1763 6.204H48.5183V5.952H49.2043C49.5029 5.952 49.8249 5.45733 50.1703 4.468ZM58.1844 7.912V11.58C58.1844 11.692 58.2497 11.748 58.3804 11.748H59.0384V12H56.5184V11.748H56.9804C57.1111 11.748 57.1764 11.692 57.1764 11.58V7.73C57.1764 7.254 57.0691 6.904 56.8544 6.68C56.6491 6.44667 56.3737 6.33 56.0284 6.33C55.5431 6.33 55.1417 6.61933 54.8244 7.198C54.5071 7.76733 54.3484 8.58867 54.3484 9.662V11.552C54.3484 11.6827 54.4137 11.748 54.5444 11.748H55.0064V12H52.4864V11.748H53.1444C53.2751 11.748 53.3404 11.692 53.3404 11.58V3.376C53.3404 3.24533 53.2751 3.18 53.1444 3.18H52.4864V2.928H53.1724C53.7324 2.928 54.1244 2.9 54.3484 2.844V7.772C54.6657 6.44667 55.3657 5.784 56.4484 5.784C56.9337 5.784 57.3444 5.96133 57.6804 6.316C58.0164 6.66133 58.1844 7.19333 58.1844 7.912ZM60.9469 11.552V6.4C60.9469 6.26933 60.8816 6.204 60.7509 6.204H60.0929V5.952H60.7789C61.3389 5.952 61.7309 5.924 61.9549 5.868V11.58C61.9549 11.692 62.0202 11.748 62.1509 11.748H62.8089V12H60.0929V11.748H60.7509C60.8816 11.748 60.9469 11.6827 60.9469 11.552ZM60.9749 4.412C60.8536 4.28133 60.7929 4.12267 60.7929 3.936C60.7929 3.74933 60.8536 3.59533 60.9749 3.474C61.1056 3.34333 61.2642 3.278 61.4509 3.278C61.6376 3.278 61.7916 3.34333 61.9129 3.474C62.0436 3.59533 62.1089 3.74933 62.1089 3.936C62.1089 4.12267 62.0436 4.28133 61.9129 4.412C61.7916 4.53333 61.6376 4.594 61.4509 4.594C61.2642 4.594 61.1056 4.53333 60.9749 4.412ZM69.5507 7.912V11.58C69.5507 11.692 69.616 11.748 69.7467 11.748H70.4047V12H67.8847V11.748H68.3467C68.4773 11.748 68.5427 11.692 68.5427 11.58V7.73C68.5427 7.254 68.4353 6.904 68.2207 6.68C68.0153 6.44667 67.74 6.33 67.3947 6.33C66.9093 6.33 66.508 6.61933 66.1907 7.198C65.8733 7.76733 65.7147 8.58867 65.7147 9.662V11.552C65.7147 11.6827 65.78 11.748 65.9107 11.748H66.3727V12H63.8527V11.748H64.5107C64.6413 11.748 64.7067 11.692 64.7067 11.58V6.4C64.7067 6.26933 64.6413 6.204 64.5107 6.204H63.8527V5.952H64.5387C65.0987 5.952 65.4907 5.924 65.7147 5.868V7.772C66.032 6.44667 66.732 5.784 67.8147 5.784C68.3 5.784 68.7107 5.96133 69.0467 6.316C69.3827 6.66133 69.5507 7.19333 69.5507 7.912ZM76.8846 6.12L76.7726 6.106C76.6886 5.52733 76.4786 5.238 76.1426 5.238C75.9746 5.238 75.8206 5.32667 75.6806 5.504C75.5406 5.68133 75.4566 5.91467 75.4286 6.204C75.9326 6.58667 76.1846 7.11867 76.1846 7.8C76.1846 8.48133 75.9839 9.00867 75.5826 9.382C75.1906 9.746 74.6772 9.928 74.0426 9.928H72.7966C72.5632 9.928 72.3812 9.99333 72.2506 10.124C72.1292 10.2547 72.0686 10.4087 72.0686 10.586C72.0686 10.7633 72.1292 10.9173 72.2506 11.048C72.3812 11.1787 72.5632 11.244 72.7966 11.244H75.1346C75.6946 11.244 76.1146 11.3747 76.3946 11.636C76.6839 11.888 76.8286 12.21 76.8286 12.602C76.8286 13.2273 76.5346 13.8153 75.9466 14.366C75.3586 14.9167 74.6259 15.192 73.7486 15.192C73.0766 15.192 72.5306 15.0333 72.1106 14.716C71.6906 14.3987 71.4806 13.9973 71.4806 13.512C71.4806 13.0267 71.7372 12.56 72.2506 12.112C72.0079 12.0467 71.8119 11.9113 71.6626 11.706C71.5226 11.4913 71.4526 11.23 71.4526 10.922C71.4526 10.614 71.5646 10.3387 71.7886 10.096C72.0126 9.844 72.3486 9.718 72.7966 9.718H73.0066C72.2786 9.382 71.9146 8.76133 71.9146 7.856C71.9146 7.212 72.1106 6.708 72.5026 6.344C72.8946 5.97067 73.4079 5.784 74.0426 5.784C74.4626 5.784 74.8312 5.868 75.1486 6.036C75.2139 5.66267 75.3446 5.35467 75.5406 5.112C75.7459 4.86933 76.0119 4.748 76.3386 4.748C76.6746 4.748 76.9499 4.83667 77.1646 5.014C77.3886 5.19133 77.5006 5.38267 77.5006 5.588C77.5006 5.94267 77.2952 6.12 76.8846 6.12ZM75.1346 12.168H72.6846C72.3859 12.5133 72.2366 12.9053 72.2366 13.344C72.2366 13.7827 72.3672 14.142 72.6286 14.422C72.8899 14.7113 73.3099 14.856 73.8886 14.856C74.4766 14.856 75.0086 14.6507 75.4846 14.24C75.9606 13.8293 76.1986 13.4047 76.1986 12.966C76.1986 12.7327 76.1099 12.5413 75.9326 12.392C75.7552 12.2427 75.4892 12.168 75.1346 12.168ZM73.2306 6.568C73.0159 6.88533 72.9086 7.31467 72.9086 7.856C72.9086 8.39733 73.0159 8.82667 73.2306 9.144C73.4452 9.46133 73.7159 9.62 74.0426 9.62C74.3692 9.62 74.6399 9.46133 74.8546 9.144C75.0786 8.82667 75.1906 8.39733 75.1906 7.856C75.1906 7.31467 75.0786 6.88533 74.8546 6.568C74.6399 6.25067 74.3692 6.092 74.0426 6.092C73.7159 6.092 73.4452 6.25067 73.2306 6.568Z" fill="#9E2B25"/>
</svg>
